<svg width="32" height="32" viewBox="0 0 32 32" fill="none" xmlns="http://www.w3.org/2000/svg">
<g clip-path="url(#clip0_1154_6275)">
<path d="M9.77778 9.77778H15.1111C15.6 9.77778 16 9.37778 16 8.88889C16 8.4 15.6 8 15.1111 8H9.77778C8.8 8 8 8.8 8 9.77778V22.2222C8 23.2 8.8 24 9.77778 24H15.1111C15.6 24 16 23.6 16 23.1111C16 22.6222 15.6 22.2222 15.1111 22.2222H9.77778V9.77778Z" fill="#8E96A0"/>
<path d="M23.6895 15.6889L21.2095 13.2089C20.9251 12.9245 20.4451 13.12 20.4451 13.52V15.1111H14.2229C13.734 15.1111 13.334 15.5111 13.334 16C13.334 16.4889 13.734 16.8889 14.2229 16.8889H20.4451V18.48C20.4451 18.88 20.9251 19.0756 21.2007 18.7911L23.6807 16.3111C23.8584 16.1422 23.8584 15.8578 23.6895 15.6889Z" fill="#8E96A0"/>
</g>
<defs>
<clipPath id="clip0_1154_6275">
<rect width="16" height="16" fill="white" transform="translate(8 8)"/>
</clipPath>
</defs>
</svg>
