<svg width="16" height="17" viewBox="0 0 16 17" fill="none" xmlns="http://www.w3.org/2000/svg">
<g clip-path="url(#clip0_8174_1271)">
<path d="M14.2063 12.6354L13.1479 11.5769V7.47436C13.1479 4.95538 11.8022 2.84667 9.45557 2.28872V1.73077C9.45557 1.04974 8.90583 0.5 8.2248 0.5C7.54378 0.5 6.99403 1.04974 6.99403 1.73077V2.28872C4.63916 2.84667 3.30172 4.94718 3.30172 7.47436V11.5769L2.24326 12.6354C1.72634 13.1523 2.08737 14.0385 2.81762 14.0385H13.6238C14.3622 14.0385 14.7233 13.1523 14.2063 12.6354ZM11.5069 12.3974H4.94275V7.47436C4.94275 5.43949 6.18172 3.78205 8.2248 3.78205C10.2679 3.78205 11.5069 5.43949 11.5069 7.47436V12.3974ZM8.2248 16.5C9.12737 16.5 9.86583 15.7615 9.86583 14.859H6.58378C6.58378 15.7615 7.31403 16.5 8.2248 16.5Z" fill="#686687"/>
</g>
<defs>
<clipPath id="clip0_8174_1271">
<rect width="16" height="16" fill="white" transform="translate(0 0.5)"/>
</clipPath>
</defs>
</svg>
